<?xml version="1.0" encoding="UTF-8"?>
<svg width="700pt" height="700pt" version="1.1" viewBox="0 0 700 700" xmlns="http://www.w3.org/2000/svg" xmlns:xlink="http://www.w3.org/1999/xlink">
 <defs>
  <symbol id="u" overflow="visible">
   <path d="m18.766-1.125c-0.96875 0.5-1.9805 0.875-3.0312 1.125-1.043 0.25781-2.1367 0.39062-3.2812 0.39062-3.3984 0-6.0898-0.94531-8.0781-2.8438-1.9922-1.9062-2.9844-4.4844-2.9844-7.7344 0-3.2578 0.99219-5.8359 2.9844-7.7344 1.9883-1.9062 4.6797-2.8594 8.0781-2.8594 1.1445 0 2.2383 0.13281 3.2812 0.39062 1.0508 0.25 2.0625 0.625 3.0312 1.125v4.2188c-0.98047-0.65625-1.9453-1.1406-2.8906-1.4531-0.94922-0.3125-1.9492-0.46875-3-0.46875-1.875 0-3.3516 0.60547-4.4219 1.8125-1.0742 1.1992-1.6094 2.8555-1.6094 4.9688 0 2.1055 0.53516 3.7617 1.6094 4.9688 1.0703 1.1992 2.5469 1.7969 4.4219 1.7969 1.0508 0 2.0508-0.14844 3-0.45312 0.94531-0.3125 1.9102-0.80078 2.8906-1.4688z"/>
  </symbol>
  <symbol id="c" overflow="visible">
   <path d="m13.734-11.141c-0.4375-0.19531-0.87109-0.34375-1.2969-0.4375-0.41797-0.10156-0.83984-0.15625-1.2656-0.15625-1.2617 0-2.2305 0.40625-2.9062 1.2188-0.67969 0.80469-1.0156 1.9531-1.0156 3.4531v7.0625h-4.8906v-15.312h4.8906v2.5156c0.625-1 1.3438-1.7266 2.1562-2.1875 0.82031-0.46875 1.8008-0.70312 2.9375-0.70312 0.16406 0 0.34375 0.011719 0.53125 0.03125 0.19531 0.011719 0.47656 0.039062 0.84375 0.078125z"/>
  </symbol>
  <symbol id="a" overflow="visible">
   <path d="m17.641-7.7031v1.4062h-11.453c0.125 1.1484 0.53906 2.0078 1.25 2.5781 0.70703 0.57422 1.7031 0.85938 2.9844 0.85938 1.0312 0 2.082-0.14844 3.1562-0.45312 1.082-0.3125 2.1914-0.77344 3.3281-1.3906v3.7656c-1.1562 0.4375-2.3125 0.76562-3.4688 0.98438-1.1562 0.22656-2.3125 0.34375-3.4688 0.34375-2.7734 0-4.9297-0.70312-6.4688-2.1094-1.5312-1.4062-2.2969-3.3789-2.2969-5.9219 0-2.5 0.75391-4.4609 2.2656-5.8906 1.5078-1.4375 3.582-2.1562 6.2188-2.1562 2.4062 0 4.332 0.73047 5.7812 2.1875 1.4453 1.4492 2.1719 3.3828 2.1719 5.7969zm-5.0312-1.625c0-0.92578-0.27344-1.6719-0.8125-2.2344-0.54297-0.57031-1.25-0.85938-2.125-0.85938-0.94922 0-1.7188 0.26562-2.3125 0.79688s-0.96484 1.2969-1.1094 2.2969z"/>
  </symbol>
  <symbol id="e" overflow="visible">
   <path d="m9.2188-6.8906c-1.0234 0-1.793 0.17188-2.3125 0.51562-0.51172 0.34375-0.76562 0.85547-0.76562 1.5312 0 0.625 0.20703 1.1172 0.625 1.4688 0.41406 0.34375 0.98828 0.51562 1.7188 0.51562 0.92578 0 1.7031-0.32812 2.3281-0.98438 0.63281-0.66406 0.95312-1.4922 0.95312-2.4844v-0.5625zm7.4688-1.8438v8.7344h-4.9219v-2.2656c-0.65625 0.92969-1.3984 1.6055-2.2188 2.0312-0.82422 0.41406-1.8242 0.625-3 0.625-1.5859 0-2.8711-0.45703-3.8594-1.375-0.99219-0.92578-1.4844-2.1289-1.4844-3.6094 0-1.7891 0.61328-3.1016 1.8438-3.9375 1.2383-0.84375 3.1797-1.2656 5.8281-1.2656h2.8906v-0.39062c0-0.76953-0.30859-1.332-0.92188-1.6875-0.61719-0.36328-1.5703-0.54688-2.8594-0.54688-1.0547 0-2.0312 0.10547-2.9375 0.3125-0.89844 0.21094-1.7305 0.52344-2.5 0.9375v-3.7344c1.0391-0.25 2.0859-0.44141 3.1406-0.57812 1.0625-0.13281 2.125-0.20312 3.1875-0.20312 2.7578 0 4.75 0.54688 5.9688 1.6406 1.2266 1.0859 1.8438 2.8555 1.8438 5.3125z"/>
  </symbol>
  <symbol id="b" overflow="visible">
   <path d="m7.7031-19.656v4.3438h5.0469v3.5h-5.0469v6.5c0 0.71094 0.14062 1.1875 0.42188 1.4375s0.83594 0.375 1.6719 0.375h2.5156v3.5h-4.1875c-1.9375 0-3.3125-0.39844-4.125-1.2031-0.80469-0.8125-1.2031-2.1797-1.2031-4.1094v-6.5h-2.4219v-3.5h2.4219v-4.3438z"/>
  </symbol>
  <symbol id="k" overflow="visible">
   <path d="m12.766-13.078v-8.2031h4.9219v21.281h-4.9219v-2.2188c-0.66797 0.90625-1.4062 1.5703-2.2188 1.9844s-1.7578 0.625-2.8281 0.625c-1.8867 0-3.4336-0.75-4.6406-2.25-1.2109-1.5-1.8125-3.4258-1.8125-5.7812 0-2.3633 0.60156-4.2969 1.8125-5.7969 1.207-1.5 2.7539-2.25 4.6406-2.25 1.0625 0 2 0.21484 2.8125 0.64062 0.82031 0.42969 1.5664 1.0859 2.2344 1.9688zm-3.2188 9.9219c1.0391 0 1.8359-0.37891 2.3906-1.1406 0.55078-0.76953 0.82812-1.8828 0.82812-3.3438 0-1.457-0.27734-2.5664-0.82812-3.3281-0.55469-0.76953-1.3516-1.1562-2.3906-1.1562-1.043 0-1.8398 0.38672-2.3906 1.1562-0.55469 0.76172-0.82812 1.8711-0.82812 3.3281 0 1.4609 0.27344 2.5742 0.82812 3.3438 0.55078 0.76172 1.3477 1.1406 2.3906 1.1406z"/>
  </symbol>
  <symbol id="j" overflow="visible">
   <path d="m10.5-3.1562c1.0508 0 1.8516-0.37891 2.4062-1.1406 0.55078-0.76953 0.82812-1.8828 0.82812-3.3438 0-1.457-0.27734-2.5664-0.82812-3.3281-0.55469-0.76953-1.3555-1.1562-2.4062-1.1562-1.0547 0-1.8594 0.38672-2.4219 1.1562-0.55469 0.77344-0.82812 1.8828-0.82812 3.3281 0 1.4492 0.27344 2.5586 0.82812 3.3281 0.5625 0.77344 1.3672 1.1562 2.4219 1.1562zm-3.25-9.9219c0.67578-0.88281 1.4219-1.5391 2.2344-1.9688 0.82031-0.42578 1.7656-0.64062 2.8281-0.64062 1.8945 0 3.4453 0.75 4.6562 2.25 1.207 1.5 1.8125 3.4336 1.8125 5.7969 0 2.3555-0.60547 4.2812-1.8125 5.7812-1.2109 1.5-2.7617 2.25-4.6562 2.25-1.0625 0-2.0078-0.21094-2.8281-0.625-0.8125-0.42578-1.5586-1.0859-2.2344-1.9844v2.2188h-4.8906v-21.281h4.8906z"/>
  </symbol>
  <symbol id="i" overflow="visible">
   <path d="m0.34375-15.312h4.8906l4.125 10.391 3.5-10.391h4.8906l-6.4375 16.766c-0.64844 1.6953-1.4023 2.8828-2.2656 3.5625-0.86719 0.6875-2 1.0312-3.4062 1.0312h-2.8438v-3.2188h1.5312c0.83203 0 1.4375-0.13672 1.8125-0.40625 0.38281-0.26172 0.67969-0.73047 0.89062-1.4062l0.14062-0.42188z"/>
  </symbol>
  <symbol id="f" overflow="visible">
   <path d="m14.953-3.7188h-8.2188l-1.3125 3.7188h-5.2812l7.5625-20.406h6.2656l7.5625 20.406h-5.2812zm-6.9062-3.7812h5.5781l-2.7812-8.125z"/>
  </symbol>
  <symbol id="t" overflow="visible">
   <path d="m2.3594-21.281h4.8906v21.281h-4.8906z"/>
  </symbol>
  <symbol id="h" overflow="visible">
   <path d="m17.75-9.3281v9.3281h-4.9219v-7.1406c0-1.3203-0.03125-2.2344-0.09375-2.7344s-0.16797-0.86719-0.3125-1.1094c-0.1875-0.3125-0.44922-0.55469-0.78125-0.73438-0.32422-0.17578-0.69531-0.26562-1.1094-0.26562-1.0234 0-1.8242 0.39844-2.4062 1.1875-0.58594 0.78125-0.875 1.8711-0.875 3.2656v7.5312h-4.8906v-15.312h4.8906v2.2344c0.73828-0.88281 1.5195-1.5391 2.3438-1.9688 0.83203-0.42578 1.75-0.64062 2.75-0.64062 1.7695 0 3.1133 0.54688 4.0312 1.6406 0.91406 1.0859 1.375 2.6562 1.375 4.7188z"/>
  </symbol>
  <symbol id="g" overflow="visible">
   <path d="m16.547-12.766c0.61328-0.94531 1.3477-1.6719 2.2031-2.1719 0.85156-0.5 1.7891-0.75 2.8125-0.75 1.7578 0 3.0977 0.54688 4.0156 1.6406 0.92578 1.0859 1.3906 2.6562 1.3906 4.7188v9.3281h-4.9219v-7.9844-0.35938c0.007813-0.13281 0.015625-0.32031 0.015625-0.5625 0-1.082-0.16406-1.8633-0.48438-2.3438-0.3125-0.48828-0.82422-0.73438-1.5312-0.73438-0.92969 0-1.6484 0.38672-2.1562 1.1562-0.51172 0.76172-0.77344 1.8672-0.78125 3.3125v7.5156h-4.9219v-7.9844c0-1.6953-0.14844-2.7852-0.4375-3.2656-0.29297-0.48828-0.8125-0.73438-1.5625-0.73438-0.9375 0-1.6641 0.38672-2.1719 1.1562-0.51172 0.76172-0.76562 1.8594-0.76562 3.2969v7.5312h-4.9219v-15.312h4.9219v2.2344c0.60156-0.86328 1.2891-1.5156 2.0625-1.9531 0.78125-0.4375 1.6406-0.65625 2.5781-0.65625 1.0625 0 2 0.25781 2.8125 0.76562 0.8125 0.51172 1.4258 1.2305 1.8438 2.1562z"/>
  </symbol>
  <symbol id="d" overflow="visible">
   <path d="m9.6406-12.188c-1.0859 0-1.9141 0.39062-2.4844 1.1719-0.57422 0.78125-0.85938 1.9062-0.85938 3.375s0.28516 2.5938 0.85938 3.375c0.57031 0.77344 1.3984 1.1562 2.4844 1.1562 1.0625 0 1.875-0.38281 2.4375-1.1562 0.57031-0.78125 0.85938-1.9062 0.85938-3.375s-0.28906-2.5938-0.85938-3.375c-0.5625-0.78125-1.375-1.1719-2.4375-1.1719zm0-3.5c2.6328 0 4.6914 0.71484 6.1719 2.1406 1.4766 1.418 2.2188 3.3867 2.2188 5.9062 0 2.5117-0.74219 4.4805-2.2188 5.9062-1.4805 1.418-3.5391 2.125-6.1719 2.125-2.6484 0-4.7148-0.70703-6.2031-2.125-1.4922-1.4258-2.2344-3.3945-2.2344-5.9062 0-2.5195 0.74219-4.4883 2.2344-5.9062 1.4883-1.4258 3.5547-2.1406 6.2031-2.1406z"/>
  </symbol>
  <symbol id="s" overflow="visible">
   <path d="m0.42188-15.312h4.8906l3.8281 10.578 3.7969-10.578h4.9062l-6.0312 15.312h-5.375z"/>
  </symbol>
  <symbol id="r" overflow="visible">
   <path d="m12.422-21.281v3.2188h-2.7031c-0.6875 0-1.1719 0.125-1.4531 0.375-0.27344 0.25-0.40625 0.6875-0.40625 1.3125v1.0625h4.1875v3.5h-4.1875v11.812h-4.8906v-11.812h-2.4375v-3.5h2.4375v-1.0625c0-1.6641 0.46094-2.8984 1.3906-3.7031 0.92578-0.80078 2.3672-1.2031 4.3281-1.2031z"/>
  </symbol>
  <symbol id="q" overflow="visible">
   <path d="m17.75-9.3281v9.3281h-4.9219v-7.1094c0-1.3438-0.03125-2.2656-0.09375-2.7656s-0.16797-0.86719-0.3125-1.1094c-0.1875-0.3125-0.44922-0.55469-0.78125-0.73438-0.32422-0.17578-0.69531-0.26562-1.1094-0.26562-1.0234 0-1.8242 0.39844-2.4062 1.1875-0.58594 0.78125-0.875 1.8711-0.875 3.2656v7.5312h-4.8906v-21.281h4.8906v8.2031c0.73828-0.88281 1.5195-1.5391 2.3438-1.9688 0.83203-0.42578 1.75-0.64062 2.75-0.64062 1.7695 0 3.1133 0.54688 4.0312 1.6406 0.91406 1.0859 1.375 2.6562 1.375 4.7188z"/>
  </symbol>
  <symbol id="p" overflow="visible">
   <path d="m2.5781-20.406h5.875l7.4219 14v-14h4.9844v20.406h-5.875l-7.4219-14v14h-4.9844z"/>
  </symbol>
  <symbol id="o" overflow="visible">
   <path d="m2.1875-5.9688v-9.3438h4.9219v1.5312c0 0.83594-0.007813 1.875-0.015625 3.125-0.011719 1.25-0.015625 2.0859-0.015625 2.5 0 1.2422 0.03125 2.1328 0.09375 2.6719 0.070313 0.54297 0.17969 0.93359 0.32812 1.1719 0.20703 0.32422 0.47266 0.57422 0.79688 0.75 0.32031 0.16797 0.69141 0.25 1.1094 0.25 1.0195 0 1.8203-0.39062 2.4062-1.1719 0.58203-0.78125 0.875-1.8672 0.875-3.2656v-7.5625h4.8906v15.312h-4.8906v-2.2188c-0.74219 0.89844-1.5234 1.5586-2.3438 1.9844-0.82422 0.41406-1.7344 0.625-2.7344 0.625-1.7617 0-3.1055-0.53906-4.0312-1.625-0.92969-1.082-1.3906-2.6602-1.3906-4.7344z"/>
  </symbol>
  <symbol id="n" overflow="visible">
   <path d="m2.5781-20.406h8.7344c2.5938 0 4.582 0.57812 5.9688 1.7344 1.3945 1.1484 2.0938 2.7891 2.0938 4.9219 0 2.1367-0.69922 3.7812-2.0938 4.9375-1.3867 1.1562-3.375 1.7344-5.9688 1.7344h-3.4844v7.0781h-5.25zm5.25 3.8125v5.7031h2.9219c1.0195 0 1.8047-0.25 2.3594-0.75 0.5625-0.5 0.84375-1.2031 0.84375-2.1094 0-0.91406-0.28125-1.6172-0.84375-2.1094-0.55469-0.48828-1.3398-0.73438-2.3594-0.73438z"/>
  </symbol>
  <symbol id="m" overflow="visible">
   <path d="m2.3594-15.312h4.8906v15.031c0 2.0508-0.49609 3.6172-1.4844 4.7031-0.98047 1.082-2.4062 1.625-4.2812 1.625h-2.4219v-3.2188h0.85938c0.92578 0 1.5625-0.21094 1.9062-0.625 0.35156-0.41797 0.53125-1.2461 0.53125-2.4844zm0-5.9688h4.8906v4h-4.8906z"/>
  </symbol>
  <symbol id="l" overflow="visible">
   <path d="m14.719-14.828v3.9844c-0.65625-0.45703-1.3242-0.79688-2-1.0156-0.66797-0.21875-1.3594-0.32812-2.0781-0.32812-1.3672 0-2.4336 0.40234-3.2031 1.2031-0.76172 0.79297-1.1406 1.9062-1.1406 3.3438 0 1.4297 0.37891 2.543 1.1406 3.3438 0.76953 0.79297 1.8359 1.1875 3.2031 1.1875 0.75781 0 1.4844-0.10938 2.1719-0.32812 0.6875-0.22656 1.3203-0.56641 1.9062-1.0156v4c-0.76172 0.28125-1.5391 0.48828-2.3281 0.625-0.78125 0.14453-1.5742 0.21875-2.375 0.21875-2.7617 0-4.9219-0.70703-6.4844-2.125-1.5547-1.4141-2.3281-3.3828-2.3281-5.9062 0-2.5312 0.77344-4.5039 2.3281-5.9219 1.5625-1.4141 3.7227-2.125 6.4844-2.125 0.80078 0 1.5938 0.074219 2.375 0.21875 0.78125 0.13672 1.5547 0.35156 2.3281 0.64062z"/>
  </symbol>
 </defs>
 <g>
  <path d="m352.53 159.45 0.0625 0.054687c0-0.003906 0.003906-0.011718 0.003906-0.015625-0.0625-0.039062-0.09375-0.089843-0.16406-0.125 0.007812 0 0.054687 0.046875 0.097656 0.085938z"/>
  <path d="m385.57 406.67c-0.12891-2-0.54688-4.0664-1.293-5.918-2.6641-6.6367-5.8398-12.926-11.098-18.07-2.5664-2.5078-4.957-5.6016-6.2617-8.8945-1.7422-4.3867-3.8711-8.5-6.2773-12.492-1.6523-2.7383-2.4297-5.7109-2.1953-8.7539 0.36328-4.6719-0.48828-9.2852-0.17969-13.934 0.21094-3.2383 0.38672-6.4961 0.25391-9.7266-0.37109-8.7461-0.60547-17.523-1.4609-26.23-1.0977-11.172-1.1406-22.367-1.5781-33.562-0.63281-16.258-0.17187-32.523-1.4844-48.793-0.89453-11.129-0.10547-22.391-0.11328-33.59 0-1.7305 0.48828-3.1211 1.7695-4.3438 1.707-1.6289 2.4922-3.7578 2.2891-6.0938-0.59375-6.7383 0.57812-13.41 0.57812-20.125 0.011719-15.477 0.12891-30.969-0.023437-46.445-0.19531-19.758-0.54297-39.52-0.98047-59.277-0.089844-4.2227-1.0938-8.2812-2.9961-12.234-2.043-4.2344-5.4883-6.9336-8.3906-9.8828-6.2109-1.2539-9.8438 1.6523-11.574 6.8086-0.69531 2.0664-2.375 1.9648-3.9023 3.5273 0.039062 2.1211 0.074218 4.1484 0.11719 6.1758 0.59375 26.27 0.65625 52.543 0.27344 78.82-0.027343 2.0391-0.085937 4.0781-0.074218 6.1094 0.003906 2.0273-0.63672 4.4961 0.28125 5.9805 1.5078 2.4258-1.7461 3.6914-0.66016 5.6797 0.17187 0.32031 0.066406 0.80078 0.074218 1.2031 0.11328 4.6875 0.011719 9.3867 0.37109 14.051 0.51562 6.6797 0.26953 13.434 1.8203 20.043 0.52734 2.2344 0.99219 4.4727 2.8008 5.9414 2.0312 1.6523 2.1172 3.7617 2.1562 6.0352 0.10547 5.4922 0.074218 11 0.46484 16.469 0.95312 13.215-0.074219 26.438 0.33203 39.66 0.48828 16.082 0.51953 32.184 0.50391 48.273-0.011719 10.586-0.48047 21.168-0.71094 31.754-0.054688 2.4414-0.19141 4.9102 0.066406 7.3242 0.51562 4.8203 1.8945 9.5742 0.28516 14.469-0.28125 0.85156 0.47656 1.9883 0.42969 2.9805-0.14453 2.8281 0.20703 5.9258-0.83984 8.4102-2.4414 5.7852-5.3828 11.352-7.6992 17.227-1.3984 3.5508-4.0938 6.5195-6.7812 9.3281-4.957 5.1758-6.9844 11.855-9.3516 18.352-0.41016 1.1094-0.42187 2.4141-0.38672 3.625 0.16406 6.1055 0.16797 12.23 0.69922 18.312 0.34766 3.9648 0.21875 8.1602 2.9414 11.637 0.54297 0.69531 0.37891 1.9492 0.52734 2.9531 0.17188 1.2031 0.24219 2.4375 0.5 3.625 1.9414 8.9375 3.9531 17.863 5.8672 26.809 0.37891 1.7812 0.46484 3.6289 0.67188 5.4492 0.82812 7.2812 1.5898 14.57 2.4961 21.84 0.87891 7.0625 1.8086 14.117 2.9219 21.145 0.71875 4.5469 2.25 8.8867 3.793 13.312 1.9648-0.20703 3.2773-0.84375 3.4844-2.4531 0.56641-4.4297 1.3398-8.8828 1.332-13.328-0.035157-13.445-0.37891-26.891-0.64844-40.332-0.039062-1.8242-0.38672-3.6406-0.5-5.4648-0.16797-2.8281-0.30078-5.668-0.35938-8.5-0.042968-2.4375 0.28125-4.8945 0.027344-7.2969-1.0547-10.18-0.95312-20.312 1.0352-30.367 0.70703-3.5547 1.668-7.0742 2.7773-10.523 0.99219-3.0742 2.2344-6.0859 3.5859-9.0273 0.80469-1.7422 2.1719-2.0938 4.1055-1.7031 2.9922 0.60547 5.2422 2 6.3008 5.0664 1.7812 5.1562 3.8594 10.219 5.4883 15.422 0.96875 3.0781 1.7539 6.3281 1.9023 9.5352 0.54688 11.582 0.86328 23.172 1.1211 34.766 0.0625 2.8281-0.67578 5.6719-0.63672 8.5078 0.18359 13.648 0.39062 27.301 0.86719 40.941 0.15234 4.2383 1.1133 8.4609 1.8438 12.668 0.30859 1.8203 1.4453 2.8555 3.8086 2.3086 1.25-5.5781 3.4844-11.059 3.3281-17.086-0.042969-1.6133 0.21094-3.2461 0.42188-4.8594 1.3711-10.496 2.8008-20.973 3.0234-31.586 0.066406-3.2461 0.375-6.5078 0.85547-9.7227 1.0938-7.2422 2.3516-14.453 3.5547-21.676 0.5-3 1.0039-6.0039 1.5469-8.9922 0.14062-0.78516 0.47656-1.5273 0.70703-2.3008 0.57812-1.9219 1.4336-3.8086 1.6562-5.7734 0.875-7.6992 0.91406-15.453 0.39844-23.184zm-49.945-254.05 0.22266-0.49219 0.18359 0.51562zm1.125 20.629c-0.078125-4.0469-0.17969-8.3086-0.21094-12.578-0.011718-1.0078 0-2.0938 0.35938-3 1.2891-3.2578 0.875-6.2812-0.64453-9.3633-0.59375-1.2031-0.89062-2.7109-0.81641-4.0547 0.93359-17.496-0.027344-34.977-0.023438-52.465 0.003906-9.9531 0.75-19.902 1.1641-29.855 0.12891-3.0508 0.25781-6.0977 0.41016-9.1445 0.125-2.4062 0.25391-4.8203 2.1992-7.1406 0.58203 1.0938 1.0938 2.043 1.6055 3 0.29688-0.20312 0.79688-0.35938 0.82813-0.59375 0.47656-3 0.73437-6.0156-0.19531-8.9414 0.30078-0.34766 0.5-0.77344 0.8125-0.89453 5.2148-2.0391 7.2305-1.0703 8.7461 4.7148 0.20312 0.78516 0.46875 1.5742 0.53125 2.375 0.62891 7.8789 1.2695 15.754 1.7852 23.637 0.19531 3.0352 0.074219 6.0977 0.089844 9.1523 0.003906 1.8477-0.47656 3.4062-1.4961 5.0977-2.457 4.0898-2.5547 8.875-3.1602 13.289 0.71875 1.2539 1.5508 0.40234 2.2617 0.48828 0.99219 0.11719 1.3789 0.75 1.3906 1.6406 0.003907 0.38672-0.125 0.80078-0.29687 1.1523-2.207 4.4688-2.0234 9.3633-2.9922 14.5 2.9219-2.3398 2.1719-5.4023 2.8945-8.8945 0.85547 1.2812 1.6016 1.875 1.5586 2.4062-0.48047 5.875 0.77734 11.66 0.77344 17.504-0.003906 2.4688-0.011718 4.8906-1.3672 7.0625-0.90234 1.4492-1.043 2.9922-0.92969 4.6719 0.042968 0.66797-0.60938 1.3711-0.94531 2.0625l-0.042969-0.003907c0.92969 0.18359 1.8594 0.37109 3.1133 0.62109 0.82812 2.1836 0.87891 4.8164 0.25781 7.2617-0.82812 3.2305-1.8867 6.3281-1.1016 9.7539 0.19141 0.83594-0.4375 1.8555-0.69531 2.7891 1.1211 0.67188 1.2812 1.8047 1.3086 2.9805 0.078125 3.457 0.13281 6.9062 0.19141 9.8789-1.6406 1.8633-2.8047 3.5547-4.3164 4.8281-3.0469 2.5469-5.0469 2.5859-8.2266 0.30078-1.6406-1.1797-3.0391-2.6523-4.8203-4.2383zm43.203 260.96c-0.085938 3.8711-0.35156 7.6758-1.0977 11.512-1.0859 5.582-1.5742 11.277-2.3984 16.91-0.32422 2.2109-0.88672 4.3906-1.293 6.5898-1.0625 5.7969-1.9219 11.602-2.5859 17.477-0.89062 7.8633-1.793 15.754-3.0195 23.586-0.24219 1.5391-0.78516 3.0312-1.1758 4.4922-1.5078-0.14062-1.4102-1.1133-1.3984-1.8555 0.078125-5.4883 0.074219-10.965 0.77734-16.457 0.82813-6.4336 0.91406-12.969 1.2891-19.461 0.5-8.7461 1.0195-17.496 1.4102-26.242 0.11719-2.6328-0.125-5.2812-0.27344-7.918-0.035156-0.57031-0.27344-1.5391-0.60938-1.6289-3.7305-0.98438-2.5742-4.2227-2.7109-6.4844-0.17188-2.8633-0.75781-5.5938-1.1328-8.3945-0.85156-6.332-2.9102-12.227-5.2031-18.105-0.4375-1.1211-0.60938-2.3516-0.81641-3.5508-0.40234-2.3867-1.6367-4.0469-5.5039-4.7422 1.5352-0.78906 2.043-1.0547 3.0234-1.5508-1.2148-0.72266-2.1211-1.5586-3.1797-1.832-1.3555-0.35156-2.8242-0.3125-4.2461-0.34766-5.3945-0.13281-8.7695 2.5859-9.9922 7.7109-0.78906 3.3359-2.0234 6.5703-2.7891 9.9102-1.6367 7.0938-3.1602 14.219-4.5938 21.359-0.3125 1.5664-0.10547 3.2539-0.0625 4.8828 0.34766 12.824 0.51562 25.66 1.1484 38.473 0.33984 6.8867 1.5273 13.738 2.2617 20.613 0.38672 3.6328 0.65625 7.293 0.90234 10.941 0.089843 1.332-0.042969 2.6758-0.074219 4.1445-0.69531-0.30859-1.2266-0.37109-1.3672-0.63672-0.37109-0.70703-0.69531-1.4727-0.82422-2.2578-1.5781-9.6211-3.0703-19.258-4.6914-28.879-0.71094-4.2109-1.6367-8.3906-2.5664-12.555-1.4688-6.5469-3.7031-12.941-3.8203-19.746-0.011719-0.40234-0.10547-0.8125-0.23047-1.1992-2.375-7.2734-2.3633-14.816-2.5938-22.348-0.10547-3.4492-0.67578-6.8867-0.93359-10.336-0.25781-3.4453-0.59375-6.8984-0.53125-10.344 0.12891-7.2227 3.0898-13.371 7.6875-18.828 3.5234-4.1758 7.6836-7.8516 10.586-12.492 2.7891-4.4648 5.1562-9.1953 7.5938-13.871 0.32422-0.61719 0.3125-1.7969-0.074218-2.3281-1.6133-2.2188-1.25-4.7148-1.0938-7.0859 0.44922-6.6992 0.15625-13.395 0.11719-20.082-0.027343-4.8477-0.92969-9.6953-1.4102-14.539-0.16406-1.6133-0.50781-3.2695-0.29297-4.8398 1.3086-9.3516 0.35156-18.727 0.34766-28.086-0.003906-11.406-0.58203-22.82-0.44922-34.227 0.089844-7.707-0.76562-15.457 0.69531-23.129 0.11328-0.58984 0.054688-1.2227 0.011719-1.832-0.78516-9.9961 0.30859-19.898 1.4102-29.809 0.26953-2.418 0.027344-4.8828 0.10547-7.3242 0.035156-0.98047 0.29297-1.9531 0.53906-3.4961 0.94141 0.68359 1.9531 1.0547 1.9922 1.5078 0.60938 7.3008 3.0312 14.34 2.9609 21.746-0.050782 5.293 0.10547 10.59 0.33984 15.875 0.11719 2.6211 0.83594 5.2188 0.93359 7.8398 0.34766 9.1523 0.55859 18.301 0.78906 27.457 0.023437 1.0039 0.16797 2.2852-0.35938 2.9688-2.082 2.7422-1.3555 5.8203-1.4102 8.8203-0.0625 3.0391-0.21875 6.082-0.30078 9.1211-0.027344 1.1523 0.035156 2.3008 0.0625 3.875 0.875-0.61719 1.3086-0.92578 1.7422-1.2266 0.19141 0.28516 0.57813 0.59375 0.59766 0.92969 0.50781 6.8945 1.4727 13.789-0.089844 20.688-0.15625 0.70703 0.003906 1.6445 0.37109 2.2773 2.1719 3.793 1.8086 7.8125 1.1641 11.832-0.67578 4.2227-1.5664 8.4062-2.2852 12.621-0.26953 1.5859-0.30859 3.207 0.15625 4.9961 0.71094-1.8555 1.4219-3.7109 2.5156-6.5391 0.51953 3.793 1.4102 6.5195-0.90625 8.9258-0.78906 4.8008-1.7539 9.5938-0.44141 14.453 2.2852 2.1992 1.8555 4.6406 0.63281 7.1562l0.078125-0.074218c0.89062 1.332 1.9531 2.582 2.6211 4.0156 0.76172 1.6523 1.1797 3.4648 1.7305 5.2148 1.625 5.1445 4.8477 9.1914 8.6289 12.926 4.9219 4.8594 9.9922 9.6719 12.363 16.441 0.66797 1.8984 1.3398 3.875 1.4961 5.8516 0.29688 3.8477 0.33594 7.7266 0.28125 11.594-0.085937 6.3203-0.39453 12.633-0.53516 18.945zm-25.297-86.875c-0.003906 0.32031-0.32031 0.63281-0.50391 0.95312-0.16406-0.32422-0.32422-0.65625-0.48828-0.97266 0.17188-0.32031 0.35156-0.63281 0.53125-0.94141 0.17188 0.31641 0.46875 0.64062 0.46094 0.96094z"/>
  <path d="m344.18 284.94c0.20703 11.105 0.41406 22.215 0.62109 33.32 0.089844 0 0.17188-0.003906 0.26172-0.003906-0.20703-11.105-0.41406-22.211-0.62109-33.312-0.082031-0.007812-0.17188-0.003906-0.26172-0.003906z" fill-rule="evenodd"/>
  <path d="m373.04 425.08c0.46484-0.26953 1.082-0.50391 1.1523-0.85156 0.66797-3.125 1.2266-6.2734 1.7266-9.4297 0.0625-0.375-0.42188-0.82812-0.92578-1.7656-0.71094 4.4141-1.332 8.2383-1.9531 12.047z"/>
  <path d="m373 425.31c0.011719-0.078125 0.027344-0.15625 0.039062-0.23438-0.054687 0.035156-0.125 0.066406-0.17187 0.10156-0.003907 0 0.10547 0.10156 0.13281 0.13281z"/>
  <path d="m345.88 366.41c-0.37891 0.98438-1.1719 1.9531-0.5 3.293 1.2383-1.2773 2.8398-2.2383 1.7695-4.5859-0.52344 0.52344-1.082 0.83594-1.2695 1.293z" fill-rule="evenodd"/>
  <path d="m326.02 397.49c-0.25781 0.042969-0.46094 0.41406-0.77734 0.72656 0.26172 0.44922 0.46875 0.94531 0.81641 1.3086 0.085937 0.089843 0.77344-0.15625 0.92578-0.41016 0.375-0.62891-0.29688-1.7422-0.96484-1.625z" fill-rule="evenodd"/>
  <path d="m324.57 414.05c0.011719 0.57812 0.023437 1.1406 0.035156 1.7188 0.0625 0 0.11719 0 0.17969-0.003906-0.011718-0.57031-0.023437-1.1406-0.035156-1.7188-0.058594 0-0.12109 0-0.17969 0.003906z" fill-rule="evenodd"/>
  <path d="m373.86 399.05c0.042969-0.37891-0.39062-0.8125-0.61719-1.2227-0.30859 0.41016-0.62109 0.81641-0.89062 1.1758 0.26172 0.45313 0.44141 0.76563 0.62891 1.082 0.3125-0.33984 0.83594-0.66016 0.87891-1.0352z" fill-rule="evenodd"/>
  <path d="m350.55 372.45c-0.10547 0.16406-0.32422 0.33594-0.30859 0.48828 0.054687 0.53906 0.19141 1.0703 0.46875 2.4766 0.33203-1.3789 0.53125-1.8984 0.54688-2.418 0.007812-0.17578-0.45703-0.36719-0.70703-0.54688z" fill-rule="evenodd"/>
  <path d="m372.93 425.54c0.027344-0.066406 0.054687-0.13281 0.085937-0.20703l-0.14844-0.14844c0.015625 0.11328 0.039062 0.23828 0.0625 0.35547z"/>
  <path d="m372.54 427.31c0.19531-0.18359 0.55859-0.37109 0.55859-0.55469 0.003906-0.41016-0.078125-0.8125-0.15625-1.2227-0.17188 0.42969-0.36328 0.85156-0.51562 1.2891-0.050781 0.13672 0.066406 0.32812 0.11328 0.48828z"/>
  <path d="m368.93 394.84c0.36328 0.3125 0.60547 0.52734 0.84375 0.73438 0.19141-0.33203 0.52734-0.65625 0.53125-0.99219 0.003906-0.32031-0.33594-0.64453-0.51953-0.96875-0.28125 0.39844-0.55469 0.79687-0.85547 1.2266z" fill-rule="evenodd"/>
  <path d="m353.38 359.23s-0.078124 0.074219-0.066406 0.089843c0.12109 0.039063 0.019532-0.070312 0.066406-0.089843z" fill-rule="evenodd"/>
  <path d="m333.4 404.17c0.09375-0.29688 0.19141-0.59375 0.28516-0.89453 0.003906 0-0.17188-0.15234-0.17188-0.15234-0.042969 0.35156-0.074219 0.69922-0.11328 1.0469z" fill-rule="evenodd"/>
  <path d="m333.51 403.12 0.17188 0.15234c0.48828-0.74609 0.96875-1.4961 1.457-2.2383l-0.15625-0.15234c-0.49219 0.74219-0.97656 1.4883-1.4727 2.2383z" fill-rule="evenodd"/>
  <path d="m335.47 399.17c-0.14453 0.24609-0.37891 0.48047-0.41406 0.74609-0.039063 0.26953 0.003906 0.55469 0.050781 0.83594 0.22266-0.23047 0.47656-0.44141 0.57031-0.71094 0.085937-0.23828-0.12891-0.57812-0.20703-0.87109z"/>
  <path d="m335.14 401.03c-0.011719-0.09375-0.023437-0.19141-0.039062-0.28516-0.039063 0.042968-0.085938 0.085937-0.125 0.12891 0.007812 0.011718 0.16406 0.15625 0.16406 0.15625z"/>
  <path d="m342.59 391.91 0.28516-0.023437-0.15625-0.32812z" fill-rule="evenodd"/>
  <path d="m350.68 64.941c0.32422-2.4023 0.63281-5.1172-1.4219-8.7812-0.21094 4.4805-0.25781 7.6172-0.54297 10.73-0.26953 3.0195-0.69531 6.0312-1.2109 9.0234-0.54687 3.1641-1.3008 6.293-0.86328 10.836 3.0234-7.8164 3.1094-14.914 4.0391-21.809z" fill-rule="evenodd"/>
  <path d="m352.87 121.07c0.13281-0.77344-0.089844-1.7422-1.1797-1.6406-0.44141 0.039062-1.1914 0.6875-1.1758 1.0312 0.11328 2.5195-0.91797 4.7383-1.6406 7.043-0.16406 0.51562-0.003906 1.1328 0.003906 1.6953 2.5156-2.3047 3.4766-5.1367 3.9922-8.1289z" fill-rule="evenodd"/>
  <path d="m343.71 44.289c-0.12891 4.6406 0.41406 8.1406 1.2539 12.801 1.0273-8.9141 0.99609-9.3438-1.2539-12.801z" fill-rule="evenodd"/>
  <path d="m350.4 162.23c0.8125 1.7734 0.72656 3.3672 0.59375 5.1641-0.074219 0.98047 0.39844 2.0039 0.71875 3.0195 0.24219-1.2773 0.58203-2.5469 0.64844-3.832 0.125-2.3398 0.066407-4.6992 0.078125-7.043-1.6172 0.1875-2.6719 1.2969-2.0391 2.6914z"/>
  <path d="m352.44 159.53c0.050782-0.003906 0.10156-0.023438 0.15625-0.023438 0 0-0.035156-0.027344-0.0625-0.054687-0.042968-0.039063-0.09375-0.085938-0.09375-0.085938v0.16406z"/>
  <path d="m351.82 170.78 0.011719 0.011719c-0.035157-0.12891-0.085938-0.25781-0.125-0.38672-0.015626 0.074219-0.035157 0.15234-0.042969 0.22266 0 0.003906 0.16797 0.16406 0.15625 0.15234z"/>
  <path d="m343.86 163.39c-2.1328 2.7383-2.1328 2.7383 0.18359 9.8672-0.070312-3.8828-0.11328-6.375-0.18359-9.8672z" fill-rule="evenodd"/>
  <path d="m346.72 162.78c0.039062 2.168 0.078125 4.3398 0.125 6.5117 0.15234-0.003907 0.29688-0.003907 0.44922-0.003907-0.039063-2.1289-0.078125-4.25-0.11719-6.3789-0.15625-0.046875-0.30469-0.089844-0.45703-0.12891z" fill-rule="evenodd"/>
  <path d="m350.49 171.08c-0.054688 0.042969 0.066406 0.30859 0.10547 0.46484 0.24609-0.16406 0.50781-0.30859 0.73438-0.49219 0.11719-0.09375 0.19531-0.23438 0.28516-0.36328-0.11719-0.054688-0.23047-0.10547-0.3125-0.078125-0.28516 0.09375-0.56641 0.26953-0.8125 0.46875z"/>
  <path d="m351.67 170.63c-0.015625 0.015626-0.027344 0.035157-0.042969 0.054688 0.066406 0.035156 0.13281 0.066406 0.20312 0.09375 0.007813 0.011719-0.16016-0.14844-0.16016-0.14844z"/>
  <path d="m351.11 139.09c-0.035156-0.015626-0.078125-0.027344-0.078125-0.027344 0.035156 0.050781 0.074219 0.10156 0.10547 0.15234-0.011719-0.039063-0.015625-0.078126-0.027344-0.125z"/>
  <path d="m352.04 140.5c-0.30078-0.42969-0.60547-0.86328-0.90625-1.2891 0.14453 0.53125 0.26953 1.0547 0.38672 1.5664 0.17969-0.09375 0.34766-0.18359 0.51953-0.27734z"/>
 </g>
</svg>
